# xmcd
#
# Track frame offsets: 
#        182
#        13007
#        25370
#        36457
#        46145
#        57207
#        68707
#        78067
#        87307
#        97040
#        109620
#        122540
#        134657
#        145257
#        155420
#        164440
#        176385
#        189360
#        200237
#        213470
#        225415
#        235962
#        248670
#        263175
#        277540
#        286765
#        301350
#        309665
#        320215
#        334640
#        345490
#
# Disc length: 4773 seconds
#
# Revision: 0
# Processed by: cddbd v1.4PL0 Copyright (c) Steve Scherf et al.
# Submitted via: ExactAudioCopy v0.90b3
#
DISCID=b412a31f
DTITLE=Jim Reeves - Welcome To My World - Disc 10
DYEAR=1900
DGENRE=Country
TTITLE0=Where Does A Broken Heart Go (1966)
TTITLE1=Pride Goes Before A Fall (1962)
TTITLE2=Little Ole You (1962)
TTITLE3=I'm Gonna Change Everything (1962)
TTITLE4=Welcome To My World (1994)
TTITLE5=Tahiti (1962)
TTITLE6=Bolandse Nooientjie (1962)
TTITLE7=Ek Verlang Na Jou (1962)
TTITLE8=Die Ou Kalahari (1962)
TTITLE9=I Love You Because (1963)
TTITLE10=Roses Are Red (My Love) (1963)
TTITLE11=Just Out Of Reach (1963)
TTITLE12=Memories Are Made Of This (1963)
TTITLE13=Stand In (1963)
TTITLE14=After Loving You (1963)
TTITLE15=The One That Got Away (1963)
TTITLE16=I'd Fight The World (1963)
TTITLE17=Waltzing On Top Of The World (1963)
TTITLE18=When You Are Gone (1963)
TTITLE19=Once Upon A Time (1963)
TTITLE20=O Little Town Of Bethlehem (1963)
TTITLE21=An Old Christmas Card (1963)
TTITLE22=Silent Night (1963)
TTITLE23=Mary's Little Boy Child (1963)
TTITLE24=Oh Come All Ye Faithful (Adeste Fideles) (1963)
TTITLE25=White Christmas (1963)
TTITLE26=Jingle Bells (1963)
TTITLE27=The Merry Christmas Polka (1963)
TTITLE28=Blue Christmas (1963)
TTITLE29=Senor Santa Claus (1963)
TTITLE30=C-H-R-I-S-T-M-A-S (1963)
EXTD=
EXTT0=
EXTT1=
EXTT2=
EXTT3=
EXTT4=
EXTT5=
EXTT6=
EXTT7=
EXTT8=
EXTT9=
EXTT10=
EXTT11=
EXTT12=
EXTT13=
EXTT14=
EXTT15=
EXTT16=
EXTT17=
EXTT18=
EXTT19=
EXTT20=
EXTT21=
EXTT22=
EXTT23=
EXTT24=
EXTT25=
EXTT26=
EXTT27=
EXTT28=
EXTT29=
EXTT30=
PLAYORDER=
